<svg xmlns="http://www.w3.org/2000/svg" version="1.1" xmlns:xlink="http://www.w3.org/1999/xlink" xmlns:svgjs="http://svgjs.dev/svgjs" width="1920" height="1080" preserveAspectRatio="none" viewBox="0 0 1920 1080"><g mask="url(&quot;#SvgjsMask1000&quot;)" fill="none"><path d="M946.9 229.27L1036.94 229.27L1036.94 319.31L946.9 319.31z" stroke="#e73635"></path><path d="M1811.04 831.51 a27.08 27.08 0 1 0 54.16 0 a27.08 27.08 0 1 0 -54.16 0z" fill="#037b0b"></path><path d="M1008.04 61.79L1099.46 61.79L1099.46 153.21L1008.04 153.21z" fill="#037b0b"></path><path d="M145.36 753.02L243.91 753.02L243.91 789.01L145.36 789.01z" stroke="#e73635"></path><path d="M1283.29 365.56L1304.4 365.56L1304.4 386.67L1283.29 386.67z" fill="#e73635"></path><path d="M1456.19 890.95L1537.52 890.95L1537.52 972.28L1456.19 972.28z" fill="#037b0b"></path><path d="M30.95 219.99a28.57 28.57 0 1 0 20.35 53.4z" stroke="#037b0b"></path><path d="M586.97 176.46 a9.11 9.11 0 1 0 18.22 0 a9.11 9.11 0 1 0 -18.22 0z" stroke="#d3b714"></path><path d="M737.44 76.53 a88.5 88.5 0 1 0 177 0 a88.5 88.5 0 1 0 -177 0z" fill="#e73635"></path><path d="M737.57 961.38a76.31 76.31 0 1 0-138.35-64.44z" fill="#d3b714"></path><path d="M131.79 543.04L148.06 543.04L148.06 636.98L131.79 636.98z" stroke="#037b0b"></path><path d="M1449.45 822.81 a45.93 45.93 0 1 0 91.86 0 a45.93 45.93 0 1 0 -91.86 0z" fill="#e73635"></path><path d="M63.58 1048.9a35.88 35.88 0 1 0-38.03-60.85z" fill="#d3b714"></path><path d="M804.42 1042.62 a95.64 95.64 0 1 0 191.28 0 a95.64 95.64 0 1 0 -191.28 0z" fill="#037b0b"></path><path d="M-57.34 38 a102.45 102.45 0 1 0 204.9 0 a102.45 102.45 0 1 0 -204.9 0z" fill="#e73635"></path><path d="M40.2 1049.84 a84.65 84.65 0 1 0 169.3 0 a84.65 84.65 0 1 0 -169.3 0z" stroke="#e73635"></path><path d="M1903.17 930.79a31.78 31.78 0 1 0 0.09 63.56z" stroke="#d3b714"></path><path d="M275.92 79.66L345.39 79.66L345.39 149.13L275.92 149.13z" fill="#037b0b"></path><path d="M1784.76 156.01L1823.42 156.01L1823.42 194.67L1784.76 194.67z" fill="#037b0b"></path><path d="M1161.19 128.96L1188.95 128.96L1188.95 199.66L1161.19 199.66z" fill="#037b0b"></path><path d="M427.25 388.13 a20.3 20.3 0 1 0 40.6 0 a20.3 20.3 0 1 0 -40.6 0z" stroke="#037b0b"></path><path d="M1738.25 731.42L1758.92 731.42L1758.92 752.09L1738.25 752.09z" fill="#d3b714"></path><path d="M892.46 752.84 a58.17 58.17 0 1 0 116.34 0 a58.17 58.17 0 1 0 -116.34 0z" fill="#d3b714"></path></g><defs><mask id="SvgjsMask1000"><rect width="1920" height="1080" fill="#ffffff"></rect></mask></defs></svg>