<svg xmlns="http://www.w3.org/2000/svg" version="1.1" xmlns:xlink="http://www.w3.org/1999/xlink" xmlns:svgjs="http://svgjs.dev/svgjs" width="1440" height="720" preserveAspectRatio="none" viewBox="0 0 1440 720"><g mask="url(&quot;#SvgjsMask1002&quot;)" fill="none"><path d="M-44.14 500.67L-44.14 500.67" stroke="rgba(6, 56, 181, 0.19)" stroke-width="1.5"></path><path d="M-44.14 500.67L99.74 550.05" stroke="rgba(6, 56, 181, 0.19)" stroke-width="1.5"></path><path d="M-44.14 500.67L38.98 640.62" stroke="rgba(6, 56, 181, 0.19)" stroke-width="1.5"></path><path d="M-44.14 500.67L-93.18 703.68" stroke="rgba(6, 56, 181, 0.19)" stroke-width="1.5"></path><path d="M-93.18 703.68L-93.18 703.68" stroke="rgba(6, 56, 181, 0.19)" stroke-width="1.5"></path><path d="M-93.18 703.68L38.98 640.62" stroke="rgba(6, 56, 181, 0.19)" stroke-width="1.5"></path><path d="M-93.18 703.68L-56.57 858.53" stroke="rgba(6, 56, 181, 0.19)" stroke-width="1.5"></path><path d="M-56.57 858.53L-56.57 858.53" stroke="rgba(6, 56, 181, 0.19)" stroke-width="1.5"></path><path d="M-56.57 858.53L38.98 640.62" stroke="rgba(6, 56, 181, 0.19)" stroke-width="1.5"></path><path d="M-56.57 858.53L195.92 856.09" stroke="rgba(6, 56, 181, 0.19)" stroke-width="1.5"></path><path d="M99.74 550.05L99.74 550.05" stroke="rgba(6, 56, 181, 0.19)" stroke-width="1.5"></path><path d="M99.74 550.05L38.98 640.62" stroke="rgba(6, 56, 181, 0.19)" stroke-width="1.5"></path><path d="M99.74 550.05L230.27 548.65" stroke="rgba(6, 56, 181, 0.19)" stroke-width="1.5"></path><path d="M38.98 640.62L38.98 640.62" stroke="rgba(6, 56, 181, 0.19)" stroke-width="1.5"></path><path d="M38.98 640.62L225.76 646.1" stroke="rgba(6, 56, 181, 0.19)" stroke-width="1.5"></path><path d="M38.98 640.62L230.27 548.65" stroke="rgba(6, 56, 181, 0.19)" stroke-width="1.5"></path><path d="M230.27 548.65L230.27 548.65" stroke="rgba(6, 56, 181, 0.19)" stroke-width="1.5"></path><path d="M230.27 548.65L225.76 646.1" stroke="rgba(6, 56, 181, 0.19)" stroke-width="1.5"></path><path d="M230.27 548.65L399.79 531.47" stroke="rgba(6, 56, 181, 0.19)" stroke-width="1.5"></path><path d="M225.76 646.1L225.76 646.1" stroke="rgba(6, 56, 181, 0.19)" stroke-width="1.5"></path><path d="M225.76 646.1L376.45 695.08" stroke="rgba(6, 56, 181, 0.19)" stroke-width="1.5"></path><path d="M225.76 646.1L99.74 550.05" stroke="rgba(6, 56, 181, 0.19)" stroke-width="1.5"></path><path d="M195.92 856.09L195.92 856.09" stroke="rgba(6, 56, 181, 0.19)" stroke-width="1.5"></path><path d="M195.92 856.09L382.69 827.43" stroke="rgba(6, 56, 181, 0.19)" stroke-width="1.5"></path><path d="M195.92 856.09L225.76 646.1" stroke="rgba(6, 56, 181, 0.19)" stroke-width="1.5"></path><path d="M195.92 856.09L376.45 695.08" stroke="rgba(6, 56, 181, 0.19)" stroke-width="1.5"></path><path d="M384.86 390.11L384.86 390.11" stroke="rgba(6, 56, 181, 0.19)" stroke-width="1.5"></path><path d="M384.86 390.11L522.29 388.81" stroke="rgba(6, 56, 181, 0.19)" stroke-width="1.5"></path><path d="M384.86 390.11L399.79 531.47" stroke="rgba(6, 56, 181, 0.19)" stroke-width="1.5"></path><path d="M384.86 390.11L545.22 512.47" stroke="rgba(6, 56, 181, 0.19)" stroke-width="1.5"></path><path d="M399.79 531.47L399.79 531.47" stroke="rgba(6, 56, 181, 0.19)" stroke-width="1.5"></path><path d="M399.79 531.47L545.22 512.47" stroke="rgba(6, 56, 181, 0.19)" stroke-width="1.5"></path><path d="M399.79 531.47L376.45 695.08" stroke="rgba(6, 56, 181, 0.19)" stroke-width="1.5"></path><path d="M376.45 695.08L376.45 695.08" stroke="rgba(6, 56, 181, 0.19)" stroke-width="1.5"></path><path d="M376.45 695.08L382.69 827.43" stroke="rgba(6, 56, 181, 0.19)" stroke-width="1.5"></path><path d="M382.69 827.43L382.69 827.43" stroke="rgba(6, 56, 181, 0.19)" stroke-width="1.5"></path><path d="M382.69 827.43L543.38 837.89" stroke="rgba(6, 56, 181, 0.19)" stroke-width="1.5"></path><path d="M382.69 827.43L225.76 646.1" stroke="rgba(6, 56, 181, 0.19)" stroke-width="1.5"></path><path d="M382.69 827.43L399.79 531.47" stroke="rgba(6, 56, 181, 0.19)" stroke-width="1.5"></path><path d="M382.69 827.43L230.27 548.65" stroke="rgba(6, 56, 181, 0.19)" stroke-width="1.5"></path><path d="M522.29 388.81L522.29 388.81" stroke="rgba(6, 56, 181, 0.19)" stroke-width="1.5"></path><path d="M522.29 388.81L545.22 512.47" stroke="rgba(6, 56, 181, 0.19)" stroke-width="1.5"></path><path d="M522.29 388.81L399.79 531.47" stroke="rgba(6, 56, 181, 0.19)" stroke-width="1.5"></path><path d="M522.29 388.81L711.18 352.77" stroke="rgba(6, 56, 181, 0.19)" stroke-width="1.5"></path><path d="M522.29 388.81L668.99 554.12" stroke="rgba(6, 56, 181, 0.19)" stroke-width="1.5"></path><path d="M545.22 512.47L545.22 512.47" stroke="rgba(6, 56, 181, 0.19)" stroke-width="1.5"></path><path d="M545.22 512.47L668.99 554.12" stroke="rgba(6, 56, 181, 0.19)" stroke-width="1.5"></path><path d="M543.38 837.89L543.38 837.89" stroke="rgba(6, 56, 181, 0.19)" stroke-width="1.5"></path><path d="M543.38 837.89L679.57 684.43" stroke="rgba(6, 56, 181, 0.19)" stroke-width="1.5"></path><path d="M543.38 837.89L376.45 695.08" stroke="rgba(6, 56, 181, 0.19)" stroke-width="1.5"></path><path d="M711.18 352.77L711.18 352.77" stroke="rgba(6, 56, 181, 0.19)" stroke-width="1.5"></path><path d="M711.18 352.77L840.24 399.13" stroke="rgba(6, 56, 181, 0.19)" stroke-width="1.5"></path><path d="M711.18 352.77L809.48 245.63" stroke="rgba(6, 56, 181, 0.19)" stroke-width="1.5"></path><path d="M668.99 554.12L668.99 554.12" stroke="rgba(6, 56, 181, 0.19)" stroke-width="1.5"></path><path d="M668.99 554.12L679.57 684.43" stroke="rgba(6, 56, 181, 0.19)" stroke-width="1.5"></path><path d="M668.99 554.12L829.45 496.98" stroke="rgba(6, 56, 181, 0.19)" stroke-width="1.5"></path><path d="M668.99 554.12L711.18 352.77" stroke="rgba(6, 56, 181, 0.19)" stroke-width="1.5"></path><path d="M679.57 684.43L679.57 684.43" stroke="rgba(6, 56, 181, 0.19)" stroke-width="1.5"></path><path d="M679.57 684.43L788.31 859" stroke="rgba(6, 56, 181, 0.19)" stroke-width="1.5"></path><path d="M809.48 245.63L809.48 245.63" stroke="rgba(6, 56, 181, 0.19)" stroke-width="1.5"></path><path d="M809.48 245.63L942.08 220.66" stroke="rgba(6, 56, 181, 0.19)" stroke-width="1.5"></path><path d="M809.48 245.63L840.24 399.13" stroke="rgba(6, 56, 181, 0.19)" stroke-width="1.5"></path><path d="M840.24 399.13L840.24 399.13" stroke="rgba(6, 56, 181, 0.19)" stroke-width="1.5"></path><path d="M840.24 399.13L829.45 496.98" stroke="rgba(6, 56, 181, 0.19)" stroke-width="1.5"></path><path d="M840.24 399.13L943.51 350.01" stroke="rgba(6, 56, 181, 0.19)" stroke-width="1.5"></path><path d="M840.24 399.13L990 509.84" stroke="rgba(6, 56, 181, 0.19)" stroke-width="1.5"></path><path d="M840.24 399.13L942.08 220.66" stroke="rgba(6, 56, 181, 0.19)" stroke-width="1.5"></path><path d="M829.45 496.98L829.45 496.98" stroke="rgba(6, 56, 181, 0.19)" stroke-width="1.5"></path><path d="M829.45 496.98L990 509.84" stroke="rgba(6, 56, 181, 0.19)" stroke-width="1.5"></path><path d="M829.45 496.98L943.51 350.01" stroke="rgba(6, 56, 181, 0.19)" stroke-width="1.5"></path><path d="M829.45 496.98L711.18 352.77" stroke="rgba(6, 56, 181, 0.19)" stroke-width="1.5"></path><path d="M788.31 859L788.31 859" stroke="rgba(6, 56, 181, 0.19)" stroke-width="1.5"></path><path d="M788.31 859L999.18 849.99" stroke="rgba(6, 56, 181, 0.19)" stroke-width="1.5"></path><path d="M788.31 859L543.38 837.89" stroke="rgba(6, 56, 181, 0.19)" stroke-width="1.5"></path><path d="M788.31 859L958.36 678.62" stroke="rgba(6, 56, 181, 0.19)" stroke-width="1.5"></path><path d="M788.31 859L1089.98 793.21" stroke="rgba(6, 56, 181, 0.19)" stroke-width="1.5"></path><path d="M788.31 859L668.99 554.12" stroke="rgba(6, 56, 181, 0.19)" stroke-width="1.5"></path><path d="M986.69 -89.74L986.69 -89.74" stroke="rgba(6, 56, 181, 0.19)" stroke-width="1.5"></path><path d="M986.69 -89.74L1093.62 -60.67" stroke="rgba(6, 56, 181, 0.19)" stroke-width="1.5"></path><path d="M986.69 -89.74L951.09 73.13" stroke="rgba(6, 56, 181, 0.19)" stroke-width="1.5"></path><path d="M986.69 -89.74L1100.79 81.73" stroke="rgba(6, 56, 181, 0.19)" stroke-width="1.5"></path><path d="M951.09 73.13L951.09 73.13" stroke="rgba(6, 56, 181, 0.19)" stroke-width="1.5"></path><path d="M951.09 73.13L942.08 220.66" stroke="rgba(6, 56, 181, 0.19)" stroke-width="1.5"></path><path d="M951.09 73.13L1100.79 81.73" stroke="rgba(6, 56, 181, 0.19)" stroke-width="1.5"></path><path d="M951.09 73.13L1093.62 -60.67" stroke="rgba(6, 56, 181, 0.19)" stroke-width="1.5"></path><path d="M942.08 220.66L942.08 220.66" stroke="rgba(6, 56, 181, 0.19)" stroke-width="1.5"></path><path d="M942.08 220.66L943.51 350.01" stroke="rgba(6, 56, 181, 0.19)" stroke-width="1.5"></path><path d="M942.08 220.66L1128.2 237.67" stroke="rgba(6, 56, 181, 0.19)" stroke-width="1.5"></path><path d="M942.08 220.66L1100.79 81.73" stroke="rgba(6, 56, 181, 0.19)" stroke-width="1.5"></path><path d="M943.51 350.01L943.51 350.01" stroke="rgba(6, 56, 181, 0.19)" stroke-width="1.5"></path><path d="M943.51 350.01L990 509.84" stroke="rgba(6, 56, 181, 0.19)" stroke-width="1.5"></path><path d="M943.51 350.01L809.48 245.63" stroke="rgba(6, 56, 181, 0.19)" stroke-width="1.5"></path><path d="M943.51 350.01L1131.76 371.5" stroke="rgba(6, 56, 181, 0.19)" stroke-width="1.5"></path><path d="M990 509.84L990 509.84" stroke="rgba(6, 56, 181, 0.19)" stroke-width="1.5"></path><path d="M990 509.84L1094.75 519.71" stroke="rgba(6, 56, 181, 0.19)" stroke-width="1.5"></path><path d="M990 509.84L958.36 678.62" stroke="rgba(6, 56, 181, 0.19)" stroke-width="1.5"></path><path d="M990 509.84L1131.76 371.5" stroke="rgba(6, 56, 181, 0.19)" stroke-width="1.5"></path><path d="M958.36 678.62L958.36 678.62" stroke="rgba(6, 56, 181, 0.19)" stroke-width="1.5"></path><path d="M958.36 678.62L1089.98 793.21" stroke="rgba(6, 56, 181, 0.19)" stroke-width="1.5"></path><path d="M958.36 678.62L999.18 849.99" stroke="rgba(6, 56, 181, 0.19)" stroke-width="1.5"></path><path d="M958.36 678.62L1148.18 687.19" stroke="rgba(6, 56, 181, 0.19)" stroke-width="1.5"></path><path d="M958.36 678.62L1094.75 519.71" stroke="rgba(6, 56, 181, 0.19)" stroke-width="1.5"></path><path d="M999.18 849.99L999.18 849.99" stroke="rgba(6, 56, 181, 0.19)" stroke-width="1.5"></path><path d="M999.18 849.99L1089.98 793.21" stroke="rgba(6, 56, 181, 0.19)" stroke-width="1.5"></path><path d="M999.18 849.99L1148.18 687.19" stroke="rgba(6, 56, 181, 0.19)" stroke-width="1.5"></path><path d="M999.18 849.99L1300.28 813.06" stroke="rgba(6, 56, 181, 0.19)" stroke-width="1.5"></path><path d="M999.18 849.99L1264.83 680.77" stroke="rgba(6, 56, 181, 0.19)" stroke-width="1.5"></path><path d="M1093.62 -60.67L1093.62 -60.67" stroke="rgba(6, 56, 181, 0.19)" stroke-width="1.5"></path><path d="M1093.62 -60.67L1100.79 81.73" stroke="rgba(6, 56, 181, 0.19)" stroke-width="1.5"></path><path d="M1100.79 81.73L1100.79 81.73" stroke="rgba(6, 56, 181, 0.19)" stroke-width="1.5"></path><path d="M1128.2 237.67L1128.2 237.67" stroke="rgba(6, 56, 181, 0.19)" stroke-width="1.5"></path><path d="M1128.2 237.67L1131.76 371.5" stroke="rgba(6, 56, 181, 0.19)" stroke-width="1.5"></path><path d="M1128.2 237.67L1274.94 250.74" stroke="rgba(6, 56, 181, 0.19)" stroke-width="1.5"></path><path d="M1128.2 237.67L1100.79 81.73" stroke="rgba(6, 56, 181, 0.19)" stroke-width="1.5"></path><path d="M1128.2 237.67L1303.01 339.68" stroke="rgba(6, 56, 181, 0.19)" stroke-width="1.5"></path><path d="M1128.2 237.67L1270.59 78.38" stroke="rgba(6, 56, 181, 0.19)" stroke-width="1.5"></path><path d="M1131.76 371.5L1131.76 371.5" stroke="rgba(6, 56, 181, 0.19)" stroke-width="1.5"></path><path d="M1131.76 371.5L1094.75 519.71" stroke="rgba(6, 56, 181, 0.19)" stroke-width="1.5"></path><path d="M1094.75 519.71L1094.75 519.71" stroke="rgba(6, 56, 181, 0.19)" stroke-width="1.5"></path><path d="M1094.75 519.71L1148.18 687.19" stroke="rgba(6, 56, 181, 0.19)" stroke-width="1.5"></path><path d="M1148.18 687.19L1148.18 687.19" stroke="rgba(6, 56, 181, 0.19)" stroke-width="1.5"></path><path d="M1148.18 687.19L1264.83 680.77" stroke="rgba(6, 56, 181, 0.19)" stroke-width="1.5"></path><path d="M1148.18 687.19L1089.98 793.21" stroke="rgba(6, 56, 181, 0.19)" stroke-width="1.5"></path><path d="M1148.18 687.19L1300.28 813.06" stroke="rgba(6, 56, 181, 0.19)" stroke-width="1.5"></path><path d="M1089.98 793.21L1089.98 793.21" stroke="rgba(6, 56, 181, 0.19)" stroke-width="1.5"></path><path d="M1267.23 -101L1267.23 -101" stroke="rgba(6, 56, 181, 0.19)" stroke-width="1.5"></path><path d="M1267.23 -101L1424.74 -69.23" stroke="rgba(6, 56, 181, 0.19)" stroke-width="1.5"></path><path d="M1267.23 -101L1093.62 -60.67" stroke="rgba(6, 56, 181, 0.19)" stroke-width="1.5"></path><path d="M1267.23 -101L1270.59 78.38" stroke="rgba(6, 56, 181, 0.19)" stroke-width="1.5"></path><path d="M1270.59 78.38L1270.59 78.38" stroke="rgba(6, 56, 181, 0.19)" stroke-width="1.5"></path><path d="M1270.59 78.38L1100.79 81.73" stroke="rgba(6, 56, 181, 0.19)" stroke-width="1.5"></path><path d="M1274.94 250.74L1274.94 250.74" stroke="rgba(6, 56, 181, 0.19)" stroke-width="1.5"></path><path d="M1274.94 250.74L1303.01 339.68" stroke="rgba(6, 56, 181, 0.19)" stroke-width="1.5"></path><path d="M1274.94 250.74L1426.82 204.19" stroke="rgba(6, 56, 181, 0.19)" stroke-width="1.5"></path><path d="M1303.01 339.68L1303.01 339.68" stroke="rgba(6, 56, 181, 0.19)" stroke-width="1.5"></path><path d="M1303.01 339.68L1460.64 363.52" stroke="rgba(6, 56, 181, 0.19)" stroke-width="1.5"></path><path d="M1303.01 339.68L1131.76 371.5" stroke="rgba(6, 56, 181, 0.19)" stroke-width="1.5"></path><path d="M1307.24 533.36L1307.24 533.36" stroke="rgba(6, 56, 181, 0.19)" stroke-width="1.5"></path><path d="M1307.24 533.36L1442.67 534.55" stroke="rgba(6, 56, 181, 0.19)" stroke-width="1.5"></path><path d="M1307.24 533.36L1264.83 680.77" stroke="rgba(6, 56, 181, 0.19)" stroke-width="1.5"></path><path d="M1307.24 533.36L1405.95 694.4" stroke="rgba(6, 56, 181, 0.19)" stroke-width="1.5"></path><path d="M1307.24 533.36L1303.01 339.68" stroke="rgba(6, 56, 181, 0.19)" stroke-width="1.5"></path><path d="M1307.24 533.36L1094.75 519.71" stroke="rgba(6, 56, 181, 0.19)" stroke-width="1.5"></path><path d="M1307.24 533.36L1148.18 687.19" stroke="rgba(6, 56, 181, 0.19)" stroke-width="1.5"></path><path d="M1264.83 680.77L1264.83 680.77" stroke="rgba(6, 56, 181, 0.19)" stroke-width="1.5"></path><path d="M1264.83 680.77L1300.28 813.06" stroke="rgba(6, 56, 181, 0.19)" stroke-width="1.5"></path><path d="M1264.83 680.77L1405.95 694.4" stroke="rgba(6, 56, 181, 0.19)" stroke-width="1.5"></path><path d="M1300.28 813.06L1300.28 813.06" stroke="rgba(6, 56, 181, 0.19)" stroke-width="1.5"></path><path d="M1300.28 813.06L1406.74 849.23" stroke="rgba(6, 56, 181, 0.19)" stroke-width="1.5"></path><path d="M1300.28 813.06L1405.95 694.4" stroke="rgba(6, 56, 181, 0.19)" stroke-width="1.5"></path><path d="M1300.28 813.06L1089.98 793.21" stroke="rgba(6, 56, 181, 0.19)" stroke-width="1.5"></path><path d="M1424.74 -69.23L1424.74 -69.23" stroke="rgba(6, 56, 181, 0.19)" stroke-width="1.5"></path><path d="M1424.74 -69.23L1601.68 -51.84" stroke="rgba(6, 56, 181, 0.19)" stroke-width="1.5"></path><path d="M1424.74 -69.23L1564.81 64.06" stroke="rgba(6, 56, 181, 0.19)" stroke-width="1.5"></path><path d="M1424.74 -69.23L1270.59 78.38" stroke="rgba(6, 56, 181, 0.19)" stroke-width="1.5"></path><path d="M1424.74 -69.23L1426.82 204.19" stroke="rgba(6, 56, 181, 0.19)" stroke-width="1.5"></path><path d="M1426.82 204.19L1426.82 204.19" stroke="rgba(6, 56, 181, 0.19)" stroke-width="1.5"></path><path d="M1426.82 204.19L1460.64 363.52" stroke="rgba(6, 56, 181, 0.19)" stroke-width="1.5"></path><path d="M1426.82 204.19L1608.4 189.79" stroke="rgba(6, 56, 181, 0.19)" stroke-width="1.5"></path><path d="M1426.82 204.19L1303.01 339.68" stroke="rgba(6, 56, 181, 0.19)" stroke-width="1.5"></path><path d="M1426.82 204.19L1564.96 344.08" stroke="rgba(6, 56, 181, 0.19)" stroke-width="1.5"></path><path d="M1426.82 204.19L1564.81 64.06" stroke="rgba(6, 56, 181, 0.19)" stroke-width="1.5"></path><path d="M1460.64 363.52L1460.64 363.52" stroke="rgba(6, 56, 181, 0.19)" stroke-width="1.5"></path><path d="M1460.64 363.52L1564.96 344.08" stroke="rgba(6, 56, 181, 0.19)" stroke-width="1.5"></path><path d="M1460.64 363.52L1442.67 534.55" stroke="rgba(6, 56, 181, 0.19)" stroke-width="1.5"></path><path d="M1442.67 534.55L1442.67 534.55" stroke="rgba(6, 56, 181, 0.19)" stroke-width="1.5"></path><path d="M1442.67 534.55L1559.86 550.4" stroke="rgba(6, 56, 181, 0.19)" stroke-width="1.5"></path><path d="M1442.67 534.55L1405.95 694.4" stroke="rgba(6, 56, 181, 0.19)" stroke-width="1.5"></path><path d="M1405.95 694.4L1405.95 694.4" stroke="rgba(6, 56, 181, 0.19)" stroke-width="1.5"></path><path d="M1405.95 694.4L1558.28 699.89" stroke="rgba(6, 56, 181, 0.19)" stroke-width="1.5"></path><path d="M1405.95 694.4L1406.74 849.23" stroke="rgba(6, 56, 181, 0.19)" stroke-width="1.5"></path><path d="M1406.74 849.23L1406.74 849.23" stroke="rgba(6, 56, 181, 0.19)" stroke-width="1.5"></path><path d="M1406.74 849.23L1539.64 853.04" stroke="rgba(6, 56, 181, 0.19)" stroke-width="1.5"></path><path d="M1601.68 -51.84L1601.68 -51.84" stroke="rgba(6, 56, 181, 0.19)" stroke-width="1.5"></path><path d="M1601.68 -51.84L1564.81 64.06" stroke="rgba(6, 56, 181, 0.19)" stroke-width="1.5"></path><path d="M1601.68 -51.84L1608.4 189.79" stroke="rgba(6, 56, 181, 0.19)" stroke-width="1.5"></path><path d="M1601.68 -51.84L1426.82 204.19" stroke="rgba(6, 56, 181, 0.19)" stroke-width="1.5"></path><path d="M1601.68 -51.84L1267.23 -101" stroke="rgba(6, 56, 181, 0.19)" stroke-width="1.5"></path><path d="M1601.68 -51.84L1270.59 78.38" stroke="rgba(6, 56, 181, 0.19)" stroke-width="1.5"></path><path d="M1564.81 64.06L1564.81 64.06" stroke="rgba(6, 56, 181, 0.19)" stroke-width="1.5"></path><path d="M1564.81 64.06L1608.4 189.79" stroke="rgba(6, 56, 181, 0.19)" stroke-width="1.5"></path><path d="M1608.4 189.79L1608.4 189.79" stroke="rgba(6, 56, 181, 0.19)" stroke-width="1.5"></path><path d="M1608.4 189.79L1564.96 344.08" stroke="rgba(6, 56, 181, 0.19)" stroke-width="1.5"></path><path d="M1564.96 344.08L1564.96 344.08" stroke="rgba(6, 56, 181, 0.19)" stroke-width="1.5"></path><path d="M1564.96 344.08L1559.86 550.4" stroke="rgba(6, 56, 181, 0.19)" stroke-width="1.5"></path><path d="M1564.96 344.08L1442.67 534.55" stroke="rgba(6, 56, 181, 0.19)" stroke-width="1.5"></path><path d="M1564.96 344.08L1303.01 339.68" stroke="rgba(6, 56, 181, 0.19)" stroke-width="1.5"></path><path d="M1559.86 550.4L1559.86 550.4" stroke="rgba(6, 56, 181, 0.19)" stroke-width="1.5"></path><path d="M1559.86 550.4L1558.28 699.89" stroke="rgba(6, 56, 181, 0.19)" stroke-width="1.5"></path><path d="M1559.86 550.4L1405.95 694.4" stroke="rgba(6, 56, 181, 0.19)" stroke-width="1.5"></path><path d="M1559.86 550.4L1460.64 363.52" stroke="rgba(6, 56, 181, 0.19)" stroke-width="1.5"></path><path d="M1559.86 550.4L1307.24 533.36" stroke="rgba(6, 56, 181, 0.19)" stroke-width="1.5"></path><path d="M1558.28 699.89L1558.28 699.89" stroke="rgba(6, 56, 181, 0.19)" stroke-width="1.5"></path><path d="M1558.28 699.89L1539.64 853.04" stroke="rgba(6, 56, 181, 0.19)" stroke-width="1.5"></path><path d="M1558.28 699.89L1442.67 534.55" stroke="rgba(6, 56, 181, 0.19)" stroke-width="1.5"></path><path d="M1558.28 699.89L1406.74 849.23" stroke="rgba(6, 56, 181, 0.19)" stroke-width="1.5"></path><path d="M1539.64 853.04L1539.64 853.04" stroke="rgba(6, 56, 181, 0.19)" stroke-width="1.5"></path><path d="M1539.64 853.04L1405.95 694.4" stroke="rgba(6, 56, 181, 0.19)" stroke-width="1.5"></path><circle r="5" cx="-44.14" cy="500.67" fill="rgba(6, 56, 181, 0.19)"></circle><circle r="5" cx="-93.18" cy="703.68" fill="rgba(6, 56, 181, 0.19)"></circle><circle r="5" cx="-56.57" cy="858.53" fill="rgba(6, 56, 181, 0.19)"></circle><circle r="5" cx="99.74" cy="550.05" fill="rgba(6, 56, 181, 0.19)"></circle><circle r="5" cx="38.98" cy="640.62" fill="rgba(6, 56, 181, 0.19)"></circle><circle r="5" cx="230.27" cy="548.65" fill="rgba(6, 56, 181, 0.19)"></circle><circle r="5" cx="225.76" cy="646.1" fill="rgba(6, 56, 181, 0.19)"></circle><circle r="5" cx="195.92" cy="856.09" fill="rgba(6, 56, 181, 0.19)"></circle><circle r="5" cx="384.86" cy="390.11" fill="rgba(6, 56, 181, 0.19)"></circle><circle r="5" cx="399.79" cy="531.47" fill="rgba(6, 56, 181, 0.19)"></circle><circle r="5" cx="376.45" cy="695.08" fill="rgba(6, 56, 181, 0.19)"></circle><circle r="5" cx="382.69" cy="827.43" fill="rgba(6, 56, 181, 0.19)"></circle><circle r="5" cx="522.29" cy="388.81" fill="rgba(6, 56, 181, 0.19)"></circle><circle r="5" cx="545.22" cy="512.47" fill="rgba(6, 56, 181, 0.19)"></circle><circle r="5" cx="543.38" cy="837.89" fill="rgba(6, 56, 181, 0.19)"></circle><circle r="5" cx="711.18" cy="352.77" fill="rgba(6, 56, 181, 0.19)"></circle><circle r="5" cx="668.99" cy="554.12" fill="rgba(6, 56, 181, 0.19)"></circle><circle r="5" cx="679.57" cy="684.43" fill="rgba(6, 56, 181, 0.19)"></circle><circle r="5" cx="809.48" cy="245.63" fill="rgba(6, 56, 181, 0.19)"></circle><circle r="5" cx="840.24" cy="399.13" fill="rgba(6, 56, 181, 0.19)"></circle><circle r="5" cx="829.45" cy="496.98" fill="rgba(6, 56, 181, 0.19)"></circle><circle r="5" cx="788.31" cy="859" fill="rgba(6, 56, 181, 0.19)"></circle><circle r="5" cx="986.69" cy="-89.74" fill="rgba(6, 56, 181, 0.19)"></circle><circle r="5" cx="951.09" cy="73.13" fill="rgba(6, 56, 181, 0.19)"></circle><circle r="5" cx="942.08" cy="220.66" fill="rgba(6, 56, 181, 0.19)"></circle><circle r="5" cx="943.51" cy="350.01" fill="rgba(6, 56, 181, 0.19)"></circle><circle r="5" cx="990" cy="509.84" fill="rgba(6, 56, 181, 0.19)"></circle><circle r="5" cx="958.36" cy="678.62" fill="rgba(6, 56, 181, 0.19)"></circle><circle r="5" cx="999.18" cy="849.99" fill="rgba(6, 56, 181, 0.19)"></circle><circle r="5" cx="1093.62" cy="-60.67" fill="rgba(6, 56, 181, 0.19)"></circle><circle r="5" cx="1100.79" cy="81.73" fill="rgba(6, 56, 181, 0.19)"></circle><circle r="5" cx="1128.2" cy="237.67" fill="rgba(6, 56, 181, 0.19)"></circle><circle r="5" cx="1131.76" cy="371.5" fill="rgba(6, 56, 181, 0.19)"></circle><circle r="5" cx="1094.75" cy="519.71" fill="rgba(6, 56, 181, 0.19)"></circle><circle r="5" cx="1148.18" cy="687.19" fill="rgba(6, 56, 181, 0.19)"></circle><circle r="5" cx="1089.98" cy="793.21" fill="rgba(6, 56, 181, 0.19)"></circle><circle r="5" cx="1267.23" cy="-101" fill="rgba(6, 56, 181, 0.19)"></circle><circle r="5" cx="1270.59" cy="78.38" fill="rgba(6, 56, 181, 0.19)"></circle><circle r="5" cx="1274.94" cy="250.74" fill="rgba(6, 56, 181, 0.19)"></circle><circle r="5" cx="1303.01" cy="339.68" fill="rgba(6, 56, 181, 0.19)"></circle><circle r="5" cx="1307.24" cy="533.36" fill="rgba(6, 56, 181, 0.19)"></circle><circle r="5" cx="1264.83" cy="680.77" fill="rgba(6, 56, 181, 0.19)"></circle><circle r="5" cx="1300.28" cy="813.06" fill="rgba(6, 56, 181, 0.19)"></circle><circle r="5" cx="1424.74" cy="-69.23" fill="rgba(6, 56, 181, 0.19)"></circle><circle r="5" cx="1426.82" cy="204.19" fill="rgba(6, 56, 181, 0.19)"></circle><circle r="5" cx="1460.64" cy="363.52" fill="rgba(6, 56, 181, 0.19)"></circle><circle r="5" cx="1442.67" cy="534.55" fill="rgba(6, 56, 181, 0.19)"></circle><circle r="5" cx="1405.95" cy="694.4" fill="rgba(6, 56, 181, 0.19)"></circle><circle r="5" cx="1406.74" cy="849.23" fill="rgba(6, 56, 181, 0.19)"></circle><circle r="5" cx="1601.68" cy="-51.84" fill="rgba(6, 56, 181, 0.19)"></circle><circle r="5" cx="1564.81" cy="64.06" fill="rgba(6, 56, 181, 0.19)"></circle><circle r="5" cx="1608.4" cy="189.79" fill="rgba(6, 56, 181, 0.19)"></circle><circle r="5" cx="1564.96" cy="344.08" fill="rgba(6, 56, 181, 0.19)"></circle><circle r="5" cx="1559.86" cy="550.4" fill="rgba(6, 56, 181, 0.19)"></circle><circle r="5" cx="1558.28" cy="699.89" fill="rgba(6, 56, 181, 0.19)"></circle><circle r="5" cx="1539.64" cy="853.04" fill="rgba(6, 56, 181, 0.19)"></circle><path d="M255.35 677.94L255.35 677.94" stroke="hsla(192, 100%, 65%, 0.2)" stroke-width="1.5"></path><path d="M255.35 677.94L398.4 661.16" stroke="hsla(192, 100%, 65%, 0.2)" stroke-width="1.5"></path><path d="M255.35 677.94L109.73 684.51" stroke="hsla(192, 100%, 65%, 0.2)" stroke-width="1.5"></path><path d="M255.35 677.94L205.01 851.26" stroke="hsla(192, 100%, 65%, 0.2)" stroke-width="1.5"></path><path d="M255.35 677.94L394.1 813.51" stroke="hsla(192, 100%, 65%, 0.2)" stroke-width="1.5"></path><path d="M255.35 677.94L39.75 821.97" stroke="hsla(192, 100%, 65%, 0.2)" stroke-width="1.5"></path><path d="M255.35 677.94L527.41 646.28" stroke="hsla(192, 100%, 65%, 0.2)" stroke-width="1.5"></path><path d="M205.01 851.26L205.01 851.26" stroke="hsla(192, 100%, 65%, 0.2)" stroke-width="1.5"></path><path d="M205.01 851.26L39.75 821.97" stroke="hsla(192, 100%, 65%, 0.2)" stroke-width="1.5"></path><path d="M670.8 559.29L670.8 559.29" stroke="hsla(192, 100%, 65%, 0.2)" stroke-width="1.5"></path><path d="M670.8 559.29L681.04 670.91" stroke="hsla(192, 100%, 65%, 0.2)" stroke-width="1.5"></path><path d="M670.8 559.29L813.81 549.76" stroke="hsla(192, 100%, 65%, 0.2)" stroke-width="1.5"></path><path d="M1434.95 506.2L1434.95 506.2" stroke="hsla(192, 100%, 65%, 0.2)" stroke-width="1.5"></path><path d="M1434.95 506.2L1558.17 508.17" stroke="hsla(192, 100%, 65%, 0.2)" stroke-width="1.5"></path><path d="M1434.95 506.2L1446.5 360.83" stroke="hsla(192, 100%, 65%, 0.2)" stroke-width="1.5"></path><path d="M1434.95 506.2L1299.98 404.02" stroke="hsla(192, 100%, 65%, 0.2)" stroke-width="1.5"></path><path d="M1434.95 506.2L1586.67 407.57" stroke="hsla(192, 100%, 65%, 0.2)" stroke-width="1.5"></path><path d="M1434.95 506.2L1389.45 693.91" stroke="hsla(192, 100%, 65%, 0.2)" stroke-width="1.5"></path><path d="M1558.17 508.17L1558.17 508.17" stroke="hsla(192, 100%, 65%, 0.2)" stroke-width="1.5"></path><path d="M1558.17 508.17L1586.67 407.57" stroke="hsla(192, 100%, 65%, 0.2)" stroke-width="1.5"></path><path d="M1558.17 508.17L1569.28 691.1" stroke="hsla(192, 100%, 65%, 0.2)" stroke-width="1.5"></path><path d="M1558.17 508.17L1446.5 360.83" stroke="hsla(192, 100%, 65%, 0.2)" stroke-width="1.5"></path><path d="M1558.17 508.17L1389.45 693.91" stroke="hsla(192, 100%, 65%, 0.2)" stroke-width="1.5"></path><path d="M1558.17 508.17L1299.98 404.02" stroke="hsla(192, 100%, 65%, 0.2)" stroke-width="1.5"></path><path d="M-91.96 644.01L-91.96 644.01" stroke="hsla(192, 100%, 65%, 0.2)" stroke-width="1.5"></path><path d="M-91.96 644.01L109.73 684.51" stroke="hsla(192, 100%, 65%, 0.2)" stroke-width="1.5"></path><path d="M-91.96 644.01L-55.35 858.75" stroke="hsla(192, 100%, 65%, 0.2)" stroke-width="1.5"></path><path d="M-91.96 644.01L39.75 821.97" stroke="hsla(192, 100%, 65%, 0.2)" stroke-width="1.5"></path><path d="M-55.35 858.75L-55.35 858.75" stroke="hsla(192, 100%, 65%, 0.2)" stroke-width="1.5"></path><path d="M-55.35 858.75L39.75 821.97" stroke="hsla(192, 100%, 65%, 0.2)" stroke-width="1.5"></path><path d="M-55.35 858.75L109.73 684.51" stroke="hsla(192, 100%, 65%, 0.2)" stroke-width="1.5"></path><path d="M-55.35 858.75L205.01 851.26" stroke="hsla(192, 100%, 65%, 0.2)" stroke-width="1.5"></path><path d="M-55.35 858.75L255.35 677.94" stroke="hsla(192, 100%, 65%, 0.2)" stroke-width="1.5"></path><path d="M109.73 684.51L109.73 684.51" stroke="hsla(192, 100%, 65%, 0.2)" stroke-width="1.5"></path><path d="M109.73 684.51L39.75 821.97" stroke="hsla(192, 100%, 65%, 0.2)" stroke-width="1.5"></path><path d="M39.75 821.97L39.75 821.97" stroke="hsla(192, 100%, 65%, 0.2)" stroke-width="1.5"></path><path d="M398.4 661.16L398.4 661.16" stroke="hsla(192, 100%, 65%, 0.2)" stroke-width="1.5"></path><path d="M398.4 661.16L527.41 646.28" stroke="hsla(192, 100%, 65%, 0.2)" stroke-width="1.5"></path><path d="M398.4 661.16L394.1 813.51" stroke="hsla(192, 100%, 65%, 0.2)" stroke-width="1.5"></path><path d="M398.4 661.16L493.9 853.21" stroke="hsla(192, 100%, 65%, 0.2)" stroke-width="1.5"></path><path d="M394.1 813.51L394.1 813.51" stroke="hsla(192, 100%, 65%, 0.2)" stroke-width="1.5"></path><path d="M394.1 813.51L493.9 853.21" stroke="hsla(192, 100%, 65%, 0.2)" stroke-width="1.5"></path><path d="M527.41 646.28L527.41 646.28" stroke="hsla(192, 100%, 65%, 0.2)" stroke-width="1.5"></path><path d="M527.41 646.28L681.04 670.91" stroke="hsla(192, 100%, 65%, 0.2)" stroke-width="1.5"></path><path d="M527.41 646.28L670.8 559.29" stroke="hsla(192, 100%, 65%, 0.2)" stroke-width="1.5"></path><path d="M527.41 646.28L656.14 796.35" stroke="hsla(192, 100%, 65%, 0.2)" stroke-width="1.5"></path><path d="M527.41 646.28L493.9 853.21" stroke="hsla(192, 100%, 65%, 0.2)" stroke-width="1.5"></path><path d="M493.9 853.21L493.9 853.21" stroke="hsla(192, 100%, 65%, 0.2)" stroke-width="1.5"></path><path d="M493.9 853.21L656.14 796.35" stroke="hsla(192, 100%, 65%, 0.2)" stroke-width="1.5"></path><path d="M493.9 853.21L681.04 670.91" stroke="hsla(192, 100%, 65%, 0.2)" stroke-width="1.5"></path><path d="M493.9 853.21L205.01 851.26" stroke="hsla(192, 100%, 65%, 0.2)" stroke-width="1.5"></path><path d="M681.04 670.91L681.04 670.91" stroke="hsla(192, 100%, 65%, 0.2)" stroke-width="1.5"></path><path d="M681.04 670.91L656.14 796.35" stroke="hsla(192, 100%, 65%, 0.2)" stroke-width="1.5"></path><path d="M656.14 796.35L656.14 796.35" stroke="hsla(192, 100%, 65%, 0.2)" stroke-width="1.5"></path><path d="M656.14 796.35L818.45 850.92" stroke="hsla(192, 100%, 65%, 0.2)" stroke-width="1.5"></path><path d="M656.14 796.35L833.49 710.87" stroke="hsla(192, 100%, 65%, 0.2)" stroke-width="1.5"></path><path d="M813.81 549.76L813.81 549.76" stroke="hsla(192, 100%, 65%, 0.2)" stroke-width="1.5"></path><path d="M813.81 549.76L955.76 544.18" stroke="hsla(192, 100%, 65%, 0.2)" stroke-width="1.5"></path><path d="M813.81 549.76L833.49 710.87" stroke="hsla(192, 100%, 65%, 0.2)" stroke-width="1.5"></path><path d="M813.81 549.76L965.36 639.97" stroke="hsla(192, 100%, 65%, 0.2)" stroke-width="1.5"></path><path d="M813.81 549.76L681.04 670.91" stroke="hsla(192, 100%, 65%, 0.2)" stroke-width="1.5"></path><path d="M833.49 710.87L833.49 710.87" stroke="hsla(192, 100%, 65%, 0.2)" stroke-width="1.5"></path><path d="M833.49 710.87L818.45 850.92" stroke="hsla(192, 100%, 65%, 0.2)" stroke-width="1.5"></path><path d="M833.49 710.87L965.36 639.97" stroke="hsla(192, 100%, 65%, 0.2)" stroke-width="1.5"></path><path d="M818.45 850.92L818.45 850.92" stroke="hsla(192, 100%, 65%, 0.2)" stroke-width="1.5"></path><path d="M818.45 850.92L1003.71 850.01" stroke="hsla(192, 100%, 65%, 0.2)" stroke-width="1.5"></path><path d="M818.45 850.92L681.04 670.91" stroke="hsla(192, 100%, 65%, 0.2)" stroke-width="1.5"></path><path d="M970.1 379.45L970.1 379.45" stroke="hsla(192, 100%, 65%, 0.2)" stroke-width="1.5"></path><path d="M970.1 379.45L1120.53 385.17" stroke="hsla(192, 100%, 65%, 0.2)" stroke-width="1.5"></path><path d="M970.1 379.45L955.76 544.18" stroke="hsla(192, 100%, 65%, 0.2)" stroke-width="1.5"></path><path d="M970.1 379.45L1107.07 503.53" stroke="hsla(192, 100%, 65%, 0.2)" stroke-width="1.5"></path><path d="M970.1 379.45L813.81 549.76" stroke="hsla(192, 100%, 65%, 0.2)" stroke-width="1.5"></path><path d="M970.1 379.45L1125.41 201.7" stroke="hsla(192, 100%, 65%, 0.2)" stroke-width="1.5"></path><path d="M955.76 544.18L955.76 544.18" stroke="hsla(192, 100%, 65%, 0.2)" stroke-width="1.5"></path><path d="M955.76 544.18L965.36 639.97" stroke="hsla(192, 100%, 65%, 0.2)" stroke-width="1.5"></path><path d="M955.76 544.18L1107.07 503.53" stroke="hsla(192, 100%, 65%, 0.2)" stroke-width="1.5"></path><path d="M955.76 544.18L833.49 710.87" stroke="hsla(192, 100%, 65%, 0.2)" stroke-width="1.5"></path><path d="M965.36 639.97L965.36 639.97" stroke="hsla(192, 100%, 65%, 0.2)" stroke-width="1.5"></path><path d="M965.36 639.97L1128.76 678.22" stroke="hsla(192, 100%, 65%, 0.2)" stroke-width="1.5"></path><path d="M965.36 639.97L1107.07 503.53" stroke="hsla(192, 100%, 65%, 0.2)" stroke-width="1.5"></path><path d="M1003.71 850.01L1003.71 850.01" stroke="hsla(192, 100%, 65%, 0.2)" stroke-width="1.5"></path><path d="M1003.71 850.01L1114.39 798.95" stroke="hsla(192, 100%, 65%, 0.2)" stroke-width="1.5"></path><path d="M1003.71 850.01L1128.76 678.22" stroke="hsla(192, 100%, 65%, 0.2)" stroke-width="1.5"></path><path d="M1125.41 201.7L1125.41 201.7" stroke="hsla(192, 100%, 65%, 0.2)" stroke-width="1.5"></path><path d="M1125.41 201.7L1254.26 257.96" stroke="hsla(192, 100%, 65%, 0.2)" stroke-width="1.5"></path><path d="M1125.41 201.7L1120.53 385.17" stroke="hsla(192, 100%, 65%, 0.2)" stroke-width="1.5"></path><path d="M1125.41 201.7L1300.12 110.27" stroke="hsla(192, 100%, 65%, 0.2)" stroke-width="1.5"></path><path d="M1125.41 201.7L1299.98 404.02" stroke="hsla(192, 100%, 65%, 0.2)" stroke-width="1.5"></path><path d="M1125.41 201.7L1107.07 503.53" stroke="hsla(192, 100%, 65%, 0.2)" stroke-width="1.5"></path><path d="M1120.53 385.17L1120.53 385.17" stroke="hsla(192, 100%, 65%, 0.2)" stroke-width="1.5"></path><path d="M1120.53 385.17L1107.07 503.53" stroke="hsla(192, 100%, 65%, 0.2)" stroke-width="1.5"></path><path d="M1120.53 385.17L1299.98 404.02" stroke="hsla(192, 100%, 65%, 0.2)" stroke-width="1.5"></path><path d="M1107.07 503.53L1107.07 503.53" stroke="hsla(192, 100%, 65%, 0.2)" stroke-width="1.5"></path><path d="M1107.07 503.53L1128.76 678.22" stroke="hsla(192, 100%, 65%, 0.2)" stroke-width="1.5"></path><path d="M1128.76 678.22L1128.76 678.22" stroke="hsla(192, 100%, 65%, 0.2)" stroke-width="1.5"></path><path d="M1128.76 678.22L1114.39 798.95" stroke="hsla(192, 100%, 65%, 0.2)" stroke-width="1.5"></path><path d="M1128.76 678.22L1293.47 657.45" stroke="hsla(192, 100%, 65%, 0.2)" stroke-width="1.5"></path><path d="M1114.39 798.95L1114.39 798.95" stroke="hsla(192, 100%, 65%, 0.2)" stroke-width="1.5"></path><path d="M1114.39 798.95L1305.99 838.64" stroke="hsla(192, 100%, 65%, 0.2)" stroke-width="1.5"></path><path d="M1114.39 798.95L965.36 639.97" stroke="hsla(192, 100%, 65%, 0.2)" stroke-width="1.5"></path><path d="M1114.39 798.95L1293.47 657.45" stroke="hsla(192, 100%, 65%, 0.2)" stroke-width="1.5"></path><path d="M1114.39 798.95L833.49 710.87" stroke="hsla(192, 100%, 65%, 0.2)" stroke-width="1.5"></path><path d="M1311.9 -75.99L1311.9 -75.99" stroke="hsla(192, 100%, 65%, 0.2)" stroke-width="1.5"></path><path d="M1311.9 -75.99L1450.88 -108.55" stroke="hsla(192, 100%, 65%, 0.2)" stroke-width="1.5"></path><path d="M1311.9 -75.99L1433.17 57.33" stroke="hsla(192, 100%, 65%, 0.2)" stroke-width="1.5"></path><path d="M1300.12 110.27L1300.12 110.27" stroke="hsla(192, 100%, 65%, 0.2)" stroke-width="1.5"></path><path d="M1300.12 110.27L1433.17 57.33" stroke="hsla(192, 100%, 65%, 0.2)" stroke-width="1.5"></path><path d="M1300.12 110.27L1254.26 257.96" stroke="hsla(192, 100%, 65%, 0.2)" stroke-width="1.5"></path><path d="M1254.26 257.96L1254.26 257.96" stroke="hsla(192, 100%, 65%, 0.2)" stroke-width="1.5"></path><path d="M1254.26 257.96L1299.98 404.02" stroke="hsla(192, 100%, 65%, 0.2)" stroke-width="1.5"></path><path d="M1254.26 257.96L1120.53 385.17" stroke="hsla(192, 100%, 65%, 0.2)" stroke-width="1.5"></path><path d="M1299.98 404.02L1299.98 404.02" stroke="hsla(192, 100%, 65%, 0.2)" stroke-width="1.5"></path><path d="M1299.98 404.02L1446.5 360.83" stroke="hsla(192, 100%, 65%, 0.2)" stroke-width="1.5"></path><path d="M1293.47 657.45L1293.47 657.45" stroke="hsla(192, 100%, 65%, 0.2)" stroke-width="1.5"></path><path d="M1293.47 657.45L1389.45 693.91" stroke="hsla(192, 100%, 65%, 0.2)" stroke-width="1.5"></path><path d="M1305.99 838.64L1305.99 838.64" stroke="hsla(192, 100%, 65%, 0.2)" stroke-width="1.5"></path><path d="M1305.99 838.64L1442.36 840.23" stroke="hsla(192, 100%, 65%, 0.2)" stroke-width="1.5"></path><path d="M1305.99 838.64L1389.45 693.91" stroke="hsla(192, 100%, 65%, 0.2)" stroke-width="1.5"></path><path d="M1305.99 838.64L1293.47 657.45" stroke="hsla(192, 100%, 65%, 0.2)" stroke-width="1.5"></path><path d="M1450.88 -108.55L1450.88 -108.55" stroke="hsla(192, 100%, 65%, 0.2)" stroke-width="1.5"></path><path d="M1450.88 -108.55L1567.85 -97.97" stroke="hsla(192, 100%, 65%, 0.2)" stroke-width="1.5"></path><path d="M1450.88 -108.55L1433.17 57.33" stroke="hsla(192, 100%, 65%, 0.2)" stroke-width="1.5"></path><path d="M1433.17 57.33L1433.17 57.33" stroke="hsla(192, 100%, 65%, 0.2)" stroke-width="1.5"></path><path d="M1433.17 57.33L1566.56 64.03" stroke="hsla(192, 100%, 65%, 0.2)" stroke-width="1.5"></path><path d="M1433.17 57.33L1567.85 -97.97" stroke="hsla(192, 100%, 65%, 0.2)" stroke-width="1.5"></path><path d="M1433.17 57.33L1601.18 209.53" stroke="hsla(192, 100%, 65%, 0.2)" stroke-width="1.5"></path><path d="M1446.5 360.83L1446.5 360.83" stroke="hsla(192, 100%, 65%, 0.2)" stroke-width="1.5"></path><path d="M1446.5 360.83L1586.67 407.57" stroke="hsla(192, 100%, 65%, 0.2)" stroke-width="1.5"></path><path d="M1446.5 360.83L1601.18 209.53" stroke="hsla(192, 100%, 65%, 0.2)" stroke-width="1.5"></path><path d="M1446.5 360.83L1254.26 257.96" stroke="hsla(192, 100%, 65%, 0.2)" stroke-width="1.5"></path><path d="M1389.45 693.91L1389.45 693.91" stroke="hsla(192, 100%, 65%, 0.2)" stroke-width="1.5"></path><path d="M1389.45 693.91L1442.36 840.23" stroke="hsla(192, 100%, 65%, 0.2)" stroke-width="1.5"></path><path d="M1442.36 840.23L1442.36 840.23" stroke="hsla(192, 100%, 65%, 0.2)" stroke-width="1.5"></path><path d="M1567.85 -97.97L1567.85 -97.97" stroke="hsla(192, 100%, 65%, 0.2)" stroke-width="1.5"></path><path d="M1567.85 -97.97L1566.56 64.03" stroke="hsla(192, 100%, 65%, 0.2)" stroke-width="1.5"></path><path d="M1567.85 -97.97L1311.9 -75.99" stroke="hsla(192, 100%, 65%, 0.2)" stroke-width="1.5"></path><path d="M1566.56 64.03L1566.56 64.03" stroke="hsla(192, 100%, 65%, 0.2)" stroke-width="1.5"></path><path d="M1566.56 64.03L1601.18 209.53" stroke="hsla(192, 100%, 65%, 0.2)" stroke-width="1.5"></path><path d="M1566.56 64.03L1450.88 -108.55" stroke="hsla(192, 100%, 65%, 0.2)" stroke-width="1.5"></path><path d="M1566.56 64.03L1300.12 110.27" stroke="hsla(192, 100%, 65%, 0.2)" stroke-width="1.5"></path><path d="M1566.56 64.03L1311.9 -75.99" stroke="hsla(192, 100%, 65%, 0.2)" stroke-width="1.5"></path><path d="M1601.18 209.53L1601.18 209.53" stroke="hsla(192, 100%, 65%, 0.2)" stroke-width="1.5"></path><path d="M1601.18 209.53L1586.67 407.57" stroke="hsla(192, 100%, 65%, 0.2)" stroke-width="1.5"></path><path d="M1586.67 407.57L1586.67 407.57" stroke="hsla(192, 100%, 65%, 0.2)" stroke-width="1.5"></path><path d="M1569.28 691.1L1569.28 691.1" stroke="hsla(192, 100%, 65%, 0.2)" stroke-width="1.5"></path><path d="M1569.28 691.1L1389.45 693.91" stroke="hsla(192, 100%, 65%, 0.2)" stroke-width="1.5"></path><path d="M1569.28 691.1L1442.36 840.23" stroke="hsla(192, 100%, 65%, 0.2)" stroke-width="1.5"></path><path d="M1569.28 691.1L1434.95 506.2" stroke="hsla(192, 100%, 65%, 0.2)" stroke-width="1.5"></path><path d="M1569.28 691.1L1293.47 657.45" stroke="hsla(192, 100%, 65%, 0.2)" stroke-width="1.5"></path><circle r="25" cx="255.35" cy="677.94" fill="url(&quot;#SvgjsRadialGradient1003&quot;)"></circle><circle r="25" cx="205.01" cy="851.26" fill="url(&quot;#SvgjsRadialGradient1003&quot;)"></circle><circle r="25" cx="670.8" cy="559.29" fill="url(&quot;#SvgjsRadialGradient1003&quot;)"></circle><circle r="25" cx="1434.95" cy="506.2" fill="url(&quot;#SvgjsRadialGradient1003&quot;)"></circle><circle r="25" cx="1558.17" cy="508.17" fill="url(&quot;#SvgjsRadialGradient1003&quot;)"></circle><circle r="5" cx="-91.96" cy="644.01" fill="rgba(230, 250, 255, 0.6)"></circle><circle r="5" cx="-55.35" cy="858.75" fill="rgba(230, 250, 255, 0.6)"></circle><circle r="5" cx="109.73" cy="684.51" fill="rgba(230, 250, 255, 0.6)"></circle><circle r="5" cx="39.75" cy="821.97" fill="rgba(230, 250, 255, 0.6)"></circle><circle r="5" cx="398.4" cy="661.16" fill="rgba(230, 250, 255, 0.6)"></circle><circle r="5" cx="394.1" cy="813.51" fill="rgba(230, 250, 255, 0.6)"></circle><circle r="5" cx="527.41" cy="646.28" fill="rgba(230, 250, 255, 0.6)"></circle><circle r="5" cx="493.9" cy="853.21" fill="rgba(230, 250, 255, 0.6)"></circle><circle r="5" cx="681.04" cy="670.91" fill="rgba(230, 250, 255, 0.6)"></circle><circle r="5" cx="656.14" cy="796.35" fill="rgba(230, 250, 255, 0.6)"></circle><circle r="5" cx="813.81" cy="549.76" fill="rgba(230, 250, 255, 0.6)"></circle><circle r="5" cx="833.49" cy="710.87" fill="rgba(230, 250, 255, 0.6)"></circle><circle r="5" cx="818.45" cy="850.92" fill="rgba(230, 250, 255, 0.6)"></circle><circle r="5" cx="970.1" cy="379.45" fill="rgba(230, 250, 255, 0.6)"></circle><circle r="5" cx="955.76" cy="544.18" fill="rgba(230, 250, 255, 0.6)"></circle><circle r="5" cx="965.36" cy="639.97" fill="rgba(230, 250, 255, 0.6)"></circle><circle r="5" cx="1003.71" cy="850.01" fill="rgba(230, 250, 255, 0.6)"></circle><circle r="5" cx="1125.41" cy="201.7" fill="rgba(230, 250, 255, 0.6)"></circle><circle r="5" cx="1120.53" cy="385.17" fill="rgba(230, 250, 255, 0.6)"></circle><circle r="5" cx="1107.07" cy="503.53" fill="rgba(230, 250, 255, 0.6)"></circle><circle r="5" cx="1128.76" cy="678.22" fill="rgba(230, 250, 255, 0.6)"></circle><circle r="5" cx="1114.39" cy="798.95" fill="rgba(230, 250, 255, 0.6)"></circle><circle r="5" cx="1311.9" cy="-75.99" fill="rgba(230, 250, 255, 0.6)"></circle><circle r="5" cx="1300.12" cy="110.27" fill="rgba(230, 250, 255, 0.6)"></circle><circle r="5" cx="1254.26" cy="257.96" fill="rgba(230, 250, 255, 0.6)"></circle><circle r="5" cx="1299.98" cy="404.02" fill="rgba(230, 250, 255, 0.6)"></circle><circle r="5" cx="1293.47" cy="657.45" fill="rgba(230, 250, 255, 0.6)"></circle><circle r="5" cx="1305.99" cy="838.64" fill="rgba(230, 250, 255, 0.6)"></circle><circle r="5" cx="1450.88" cy="-108.55" fill="rgba(230, 250, 255, 0.6)"></circle><circle r="5" cx="1433.17" cy="57.33" fill="rgba(230, 250, 255, 0.6)"></circle><circle r="5" cx="1446.5" cy="360.83" fill="rgba(230, 250, 255, 0.6)"></circle><circle r="5" cx="1389.45" cy="693.91" fill="rgba(230, 250, 255, 0.6)"></circle><circle r="5" cx="1442.36" cy="840.23" fill="rgba(230, 250, 255, 0.6)"></circle><circle r="5" cx="1567.85" cy="-97.97" fill="rgba(230, 250, 255, 0.6)"></circle><circle r="5" cx="1566.56" cy="64.03" fill="rgba(230, 250, 255, 0.6)"></circle><circle r="5" cx="1601.18" cy="209.53" fill="rgba(230, 250, 255, 0.6)"></circle><circle r="5" cx="1586.67" cy="407.57" fill="rgba(230, 250, 255, 0.6)"></circle><circle r="5" cx="1569.28" cy="691.1" fill="rgba(230, 250, 255, 0.6)"></circle></g><defs><mask id="SvgjsMask1002"><rect width="1440" height="720" fill="#ffffff"></rect></mask><radialGradient id="SvgjsRadialGradient1003"><stop stop-color="#ffffff" offset="0.1"></stop><stop stop-color="rgba(0, 204, 255, 0.2)" offset="0.2"></stop><stop stop-color="rgba(0, 204, 255, 0)" offset="1"></stop></radialGradient></defs></svg>